<svg xmlns="http://www.w3.org/2000/svg" width="604.00" height="604.00" viewBox="0 0 604.00 604.00" fill="none">
  <title>Nivra mark</title>
  <desc>Nivra N monogram, solid white silhouette, square view box with the mark centred.</desc>
  <path fill="#fff" d="M 24.04 601.96 L 24.49 602 L 175.51 602 L 175.96 601.96 L 176 601.51 L 176 305.45 L 176.2 303.47 L 176.78 301.58 L 177.72 299.83 L 179 298.31 L 180.54 297.07 L 182.3 296.16 L 184.21 295.61 L 186.19 295.45 L 188.16 295.68 L 190.04 296.3 L 191.77 297.28 L 193.27 298.58 L 425.27 544.08 L 426.43 545.57 L 427.29 547.26 L 427.82 549.07 L 428 550.95 L 428 601.51 L 428.04 601.96 L 428.49 602 L 579.51 602 L 579.96 601.96 L 580 601.51 L 580 2.49 L 579.96 2.04 L 579.51 2 L 428.49 2 L 428.04 2.04 L 428 2.49 L 428 274.21 L 427.8 276.19 L 427.22 278.08 L 426.28 279.83 L 425 281.35 L 423.46 282.59 L 421.7 283.5 L 419.79 284.05 L 417.81 284.21 L 415.84 283.98 L 413.96 283.36 L 412.23 282.38 L 410.73 281.08 L 178.73 35.58 L 177.57 34.09 L 176.71 32.41 L 176.18 30.59 L 176 28.71 L 176 2.49 L 175.96 2.04 L 175.51 2 L 24.49 2 L 24.04 2.04 L 24 2.49 L 24 601.51 Z"/>
</svg>
